<?xml version="1.0" encoding="utf-8"?>
<!-- Generator: Adobe Illustrator 22.0.1, SVG Export Plug-In . SVG Version: 6.00 Build 0)  -->
<svg version="1.1" baseProfile="basic" id="Layer_1"
	 xmlns="http://www.w3.org/2000/svg" xmlns:xlink="http://www.w3.org/1999/xlink" x="0px" y="0px" viewBox="0 0 109.3 32"
	 xml:space="preserve">
<style type="text/css">
	.st0{fill:#FFFFFF;}
</style>
<g>
	<path class="st0" d="M12.4,21.2c-1.1,0-2.1,0-3.1,0c-0.6,0-1-0.2-1.4-0.5c-2-1.9-3.6-4.2-4.3-7C2.3,8.2,6.3,4.3,10.3,3.5
		c3.2-0.6,6,0.2,8.4,2.5c0.1,0,0.1,0,0.2,0c0.6-0.5,1.2-1,1.8-1.4c4.6-3,11.1-1.1,13.2,3.9c0.8,1.9,0.7,3.9,0.1,5.9
		c-0.7,2.2-2,4.2-3.6,5.8c-3.2,3.2-6.4,6.4-9.6,9.7c-1.1,1.1-2.4,1.1-3.6,0c-1.3-1.3-2.7-2.6-4-3.9c-0.4-0.4-0.7-0.9-0.7-1.5
		c0-0.9,0-1.9,0-2.8C12.4,21.6,12.4,21.5,12.4,21.2z M18.9,27.1C19,27,19,27,19.1,26.9c3-3.1,6.1-6.1,9.1-9.2
		c1.2-1.2,2.2-2.6,2.7-4.3c0.6-1.9,0.4-3.6-1-5.1c-2.8-2.9-7.3-2.4-9.4,1.1c-0.7,1.3-2.4,1.2-3.1,0c-1.5-2.7-4.5-3.7-7.3-2.6
		c-2.5,1-3.8,3.3-3.3,6c0.4,1.9,1.5,3.5,2.9,4.9c0.1,0.1,0.3,0.1,0.4,0.1c0.6,0,1.3,0,1.9,0c0.4,0,0.4-0.1,0.4-0.4
		c0-0.9,0-1.9,0-2.8c0-0.4,0.1-0.5,0.5-0.5c0.8,0,1.5,0,2.3,0c0.4,0,0.5,0.1,0.5,0.5c0,0.9,0,1.9,0,2.8c0,0.1,0,0.3,0,0.5
		c1.1,0,2.1,0,3.1,0c0.5,0,0.6,0.1,0.6,0.6c0,0.7,0,1.5,0,2.2c0,0.4-0.2,0.5-0.5,0.5c-0.9,0-1.8,0-2.7,0c-0.1,0-0.3,0-0.5,0
		c0,0.9,0,1.7,0,2.5c0,0.1,0,0.2,0.1,0.3C16.8,25.1,17.9,26.1,18.9,27.1z"/>
</g>
<g>
	<path class="st0" d="M39.4,9.1h3.2v5.7h5.9V9.1h3.2l0.1,14.7h-3.2v-6.4h-5.9v6.4h-3.2L39.4,9.1z"/>
	<path class="st0" d="M54.6,8.2h3.1v2.7h-3.1V8.2z M54.6,12.7h3.1l0.1,11.1h-3.1L54.6,12.7z"/>
	<path class="st0" d="M62.6,20.4c0.2,0.9,1,1.4,2.1,1.4s1.5-0.4,1.5-1.1s-0.5-1-2.1-1.4c-3.6-0.9-4.2-2-4.2-3.5
		c0-1.6,1.1-3.4,4.5-3.4c3.4,0,4.5,1.8,4.6,3.3h-2.9c-0.1-0.4-0.4-1.2-1.8-1.2c-1,0-1.3,0.5-1.3,1s0.3,0.8,2.1,1.2
		c3.7,0.8,4.2,2.1,4.2,3.7c0,1.8-1.4,3.5-4.7,3.5c-3.4,0-4.8-1.6-5-3.5L62.6,20.4z"/>
</g>
<g>
	<path class="st0" d="M86.4,18c0-2.5,0-5.3,0.1-7h-0.1c-0.7,3-2.1,7.9-3.5,12.5h-2.7c-1.1-4-2.7-9.6-3.3-12.5h-0.1
		c0.1,1.7,0.2,4.8,0.2,7.3v5.3h-2.9L74,8.9h4.7c1.2,3.8,2.5,8.7,2.9,10.8l0,0c0.3-1.9,1.9-7.1,3.1-10.9h4.6l0.1,14.7h-3.1L86.4,18z"
		/>
	<path class="st0" d="M94.9,19.2c0.3,1.5,1.4,2.1,3.1,2.1s2.4-0.7,2.4-1.8c0-1.2-0.7-1.7-3.2-2.3c-4-0.9-5-2.4-5-4.4
		c0-2.6,1.9-4.3,5.4-4.3c3.9,0,5.5,2.1,5.7,4.2h-3.2c-0.2-0.9-0.7-1.9-2.6-1.9c-1.3,0-2.1,0.5-2.1,1.6c0,1,0.6,1.4,3,2
		c4.3,1,5.2,2.6,5.3,4.6c0,2.7-2,4.5-5.9,4.6c-3.7,0-5.7-1.8-6.1-4.5L94.9,19.2z"/>
</g>
</svg>
